<svg width="327" height="249" viewBox="0 0 327 249" fill="none" xmlns="http://www.w3.org/2000/svg">
<g clip-path="url(#clip0_29_5)">
<path d="M65.1526 238.202C101.135 238.202 130.305 235.876 130.305 233.007C130.305 230.138 101.135 227.812 65.1526 227.812C29.1698 227.812 0 230.138 0 233.007C0 235.876 29.1698 238.202 65.1526 238.202Z" fill="#E6E6E6"/>
<path d="M49.8015 52.3585C61.14 47.2957 75.2623 50.5034 89.0542 52.7297C89.1825 50.0337 90.7382 46.7525 89.1086 44.8716C87.1288 42.5865 87.3111 40.1855 88.5024 37.7706C91.5489 31.5955 87.1842 25.0249 82.7771 19.5614C81.7838 18.3328 80.5285 17.3674 79.113 16.7437C77.6975 16.1201 76.1619 15.8557 74.6308 15.972L66.4672 16.5842C64.4806 16.7331 62.5848 17.5154 61.0334 18.8264C59.4819 20.1374 58.3489 21.9145 57.7858 23.9199C55.8365 26.703 54.7932 29.4784 55.4501 32.2394C52.5303 34.334 52.0398 36.8625 53.3518 39.7129C54.4643 41.5076 54.4525 43.2546 53.3012 44.9532C51.7892 47.1189 50.6311 49.5336 49.8744 52.0985L49.8015 52.3585Z" fill="#2F2E41"/>
<path d="M319.251 205.835H88.1585C86.1034 205.835 84.1325 204.978 82.6793 203.453C81.2262 201.927 80.4098 199.858 80.4098 197.701C164.181 187.48 246.378 187.48 327 197.701C327 199.858 326.184 201.927 324.73 203.453C323.277 204.978 321.306 205.835 319.251 205.835Z" fill="#2F2E41"/>
<path d="M327 198.179L80.4098 197.701L108.989 147.22L109.125 146.98V35.7256C109.125 34.3752 109.379 33.038 109.871 31.7904C110.363 30.5428 111.085 29.4092 111.994 28.4543C112.904 27.4994 113.984 26.742 115.172 26.2253C116.361 25.7085 117.634 25.4427 118.921 25.4428H287.122C288.408 25.4427 289.682 25.7085 290.87 26.2253C292.059 26.742 293.139 27.4994 294.048 28.4543C294.958 29.4092 295.679 30.5428 296.171 31.7904C296.664 33.038 296.917 34.3752 296.917 35.7256V147.746L327 198.179Z" fill="#3F3D56"/>
<path d="M118.697 32.6202C117.851 32.6212 117.04 32.9744 116.442 33.6023C115.844 34.2303 115.508 35.0816 115.507 35.9696V137.411C115.508 138.299 115.844 139.15 116.442 139.778C117.041 140.406 117.851 140.759 118.697 140.76H288.712C289.558 140.759 290.369 140.406 290.967 139.778C291.566 139.15 291.902 138.299 291.903 137.411V35.9696C291.902 35.0816 291.566 34.2303 290.967 33.6024C290.369 32.9744 289.558 32.6212 288.712 32.6202H118.697Z" fill="white"/>
<path d="M119.41 154.158C119.148 154.158 118.893 154.237 118.672 154.385C118.452 154.533 118.277 154.744 118.167 154.993L109.361 175.09C109.266 175.309 109.224 175.549 109.239 175.79C109.255 176.03 109.329 176.262 109.452 176.465C109.576 176.667 109.746 176.834 109.947 176.95C110.149 177.065 110.374 177.126 110.604 177.126H295.79C296.023 177.126 296.253 177.063 296.456 176.944C296.66 176.825 296.831 176.653 296.953 176.445C297.076 176.237 297.146 175.999 297.156 175.755C297.167 175.51 297.117 175.267 297.013 175.048L287.441 154.951C287.328 154.712 287.154 154.511 286.938 154.371C286.722 154.231 286.472 154.157 286.218 154.158H119.41Z" fill="#2F2E41"/>
<path d="M203.021 30.9455C204.154 30.9455 205.072 29.9814 205.072 28.7922C205.072 27.603 204.154 26.639 203.021 26.639C201.888 26.639 200.97 27.603 200.97 28.7922C200.97 29.9814 201.888 30.9455 203.021 30.9455Z" fill="white"/>
<path d="M184.819 180.954C184.518 180.954 184.226 181.058 183.988 181.25C183.749 181.442 183.577 181.711 183.499 182.016L181.29 190.629C181.235 190.841 181.228 191.064 181.269 191.281C181.309 191.497 181.397 191.7 181.525 191.875C181.652 192.05 181.817 192.192 182.005 192.289C182.193 192.387 182.4 192.437 182.61 192.437H224.619C224.837 192.437 225.051 192.383 225.245 192.278C225.439 192.173 225.606 192.021 225.732 191.835C225.859 191.648 225.941 191.433 225.972 191.206C226.003 190.98 225.982 190.749 225.91 190.532L223.07 181.919C222.977 181.637 222.803 181.393 222.571 181.22C222.34 181.047 222.063 180.954 221.778 180.954H184.819Z" fill="#2F2E41"/>
<path d="M296.917 145.306V147.22H108.989L109.13 146.981V145.306H296.917Z" fill="#2F2E41"/>
<path d="M291.675 66.3541C309.297 66.3541 323.581 51.358 323.581 32.8594C323.581 14.3609 309.297 -0.635204 291.675 -0.635204C274.054 -0.635204 259.769 14.3609 259.769 32.8594C259.769 51.358 274.054 66.3541 291.675 66.3541Z" fill="#2B49FE"/>
<path d="M304.894 47.4535H278.457C277.973 47.453 277.51 47.2512 277.168 46.8924C276.826 46.5336 276.634 46.047 276.634 45.5396V28.7922C276.634 28.2848 276.826 27.7983 277.168 27.4394C277.51 27.0806 277.973 26.8788 278.457 26.8783H304.894C305.377 26.8788 305.84 27.0806 306.182 27.4394C306.524 27.7983 306.716 28.2848 306.717 28.7922V45.5395C306.716 46.047 306.524 46.5336 306.182 46.8924C305.84 47.2512 305.377 47.453 304.894 47.4535ZM278.457 28.7922V45.5396H304.895L304.894 28.7922L278.457 28.7922Z" fill="white"/>
<path d="M299.88 28.7922H283.471V21.1363C283.471 15.5911 286.921 11.5664 291.675 11.5664C296.429 11.5664 299.88 15.5911 299.88 21.1363L299.88 28.7922ZM285.294 26.8783H298.056V21.1363C298.056 16.6287 295.432 13.4804 291.675 13.4804C287.918 13.4804 285.294 16.6287 285.294 21.1363L285.294 26.8783Z" fill="white"/>
<path d="M291.675 38.6014C292.682 38.6014 293.498 37.7444 293.498 36.6874C293.498 35.6303 292.682 34.7734 291.675 34.7734C290.668 34.7734 289.852 35.6303 289.852 36.6874C289.852 37.7444 290.668 38.6014 291.675 38.6014Z" fill="white"/>
<path d="M269.402 106.352H138.008C137.363 106.351 136.744 106.082 136.288 105.603C135.832 105.124 135.576 104.475 135.575 103.798V69.5822C135.576 68.905 135.832 68.2558 136.288 67.7769C136.744 67.2981 137.363 67.0287 138.008 67.0279H269.402C270.047 67.0287 270.665 67.2981 271.121 67.7769C271.578 68.2558 271.834 68.905 271.835 69.5822V103.798C271.834 104.475 271.578 105.124 271.121 105.603C270.665 106.082 270.047 106.351 269.402 106.352ZM138.008 68.0496C137.621 68.0501 137.25 68.2117 136.976 68.499C136.702 68.7864 136.549 69.1759 136.548 69.5822V103.798C136.549 104.204 136.702 104.594 136.976 104.881C137.25 105.169 137.621 105.33 138.008 105.331H269.402C269.789 105.33 270.16 105.169 270.434 104.881C270.707 104.594 270.861 104.204 270.862 103.798V69.5822C270.861 69.1759 270.707 68.7863 270.434 68.499C270.16 68.2117 269.789 68.0501 269.402 68.0496L138.008 68.0496Z" fill="#E6E6E6"/>
<path d="M158.424 95.7823C163.898 95.7823 168.336 91.1238 168.336 85.3772C168.336 79.6307 163.898 74.9722 158.424 74.9722C152.95 74.9722 148.512 79.6307 148.512 85.3772C148.512 91.1238 152.95 95.7823 158.424 95.7823Z" fill="#E6E6E6"/>
<path d="M181.315 78.4406C181.098 78.4402 180.883 78.4848 180.682 78.5718C180.481 78.6588 180.299 78.7864 180.145 78.9475C179.992 79.1086 179.87 79.2999 179.787 79.5105C179.703 79.721 179.661 79.9468 179.661 80.1747C179.661 80.4027 179.703 80.6284 179.787 80.839C179.87 81.0496 179.992 81.2409 180.145 81.4019C180.299 81.563 180.481 81.6907 180.682 81.7777C180.883 81.8647 181.098 81.9093 181.315 81.9089H259.192C259.63 81.9089 260.05 81.7262 260.36 81.401C260.67 81.0757 260.844 80.6347 260.844 80.1747C260.844 79.7148 260.67 79.2737 260.36 78.9485C260.05 78.6233 259.63 78.4406 259.192 78.4406H181.315Z" fill="#E6E6E6"/>
<path d="M181.315 88.8456C180.877 88.8456 180.457 89.0283 180.147 89.3535C179.837 89.6787 179.663 90.1198 179.663 90.5798C179.663 91.0397 179.837 91.4808 180.147 91.806C180.457 92.1312 180.877 92.3139 181.315 92.3139H214.826C215.264 92.3139 215.684 92.1312 215.994 91.806C216.304 91.4808 216.478 91.0397 216.478 90.5798C216.478 90.1198 216.304 89.6787 215.994 89.3535C215.684 89.0283 215.264 88.8456 214.826 88.8456H181.315Z" fill="#E6E6E6"/>
<path d="M108.665 89.5471L84.3762 103.103L84.0688 91.8065C91.9966 90.4171 99.5391 87.9982 106.513 84.0601L109.054 77.4716C109.33 76.7537 109.78 76.1236 110.359 75.6434C110.938 75.1631 111.626 74.8491 112.355 74.7322C113.084 74.6153 113.83 74.6995 114.519 74.9765C115.208 75.2535 115.817 75.7139 116.285 76.3124C116.97 77.188 117.312 78.3043 117.243 79.4351C117.173 80.5659 116.697 81.6267 115.91 82.4026L108.665 89.5471Z" fill="#FFB8B8"/>
<path d="M49.3173 167.815C49.1401 167.133 49.1024 166.419 49.2069 165.72C49.3113 165.022 49.5554 164.354 49.9231 163.762L55.2588 155.166C56.5208 153.132 58.4572 151.664 60.6924 151.045C62.9276 150.426 65.3021 150.7 67.3553 151.815C65.1129 155.822 65.4255 159.338 68.1297 162.392C63.9317 164.544 60.0517 167.32 56.6101 170.637C55.9818 171.086 55.2602 171.372 54.5055 171.469C53.7508 171.567 52.9847 171.474 52.2712 171.198C51.5577 170.922 50.9174 170.471 50.4036 169.882C49.8897 169.294 49.5173 168.585 49.3173 167.815Z" fill="#2F2E41"/>
<path d="M109.772 156.575C108.964 157.988 107.825 159.159 106.462 159.976C105.099 160.793 103.559 161.229 101.99 161.241L66.5437 161.523L65.0065 152.163L80.6868 147.322L67.4661 136.671L81.9166 118.919L108.163 144.599C109.697 146.1 110.694 148.108 110.987 150.288C111.28 152.468 110.851 154.688 109.772 156.575Z" fill="#2F2E41"/>
<path d="M61.0095 220.589H52.7081C45.2547 166.955 37.6679 113.172 60.0871 93.0975L86.5285 97.6162L83.1465 121.178L68.3885 138.93L61.0095 220.589Z" fill="#2F2E41"/>
<path d="M68.3068 232.739C67.6569 232.925 66.9769 232.964 66.3115 232.855C65.646 232.745 65.0102 232.489 64.4458 232.103L55.4323 230.831C53.4954 229.506 52.0963 227.473 51.5065 225.127C50.9167 222.781 51.1782 220.288 52.2402 218.132C56.0573 220.486 59.4058 220.158 62.3156 217.319C64.3715 221.677 67.7591 221.411 70.9943 225.083C71.4226 225.742 71.6947 226.5 71.7877 227.292C71.8808 228.084 71.7922 228.888 71.5292 229.637C71.2663 230.386 70.8367 231.059 70.2761 231.598C69.7156 232.137 69.0404 232.528 68.3068 232.739Z" fill="#2F2E41"/>
<path d="M80.6867 57.2708L65.3138 53.3976C67.867 47.9113 68.0773 41.8066 66.8511 35.3229L77.3047 35.0001C77.6322 43.0628 78.6232 50.5953 80.6867 57.2708Z" fill="#FFB8B8"/>
<path d="M84.9117 107.334C73.7209 115.34 65.8137 107.608 59.7796 95.6796C60.6181 88.3803 59.2605 79.6453 56.746 70.1539C55.6278 65.9676 56.0453 61.4932 57.9161 57.6142C59.7869 53.7352 62.975 50.7335 66.8511 49.2017L80.0718 55.0115C91.2977 64.6174 93.5073 75.0225 89.2955 85.9967L84.9117 107.334Z" fill="#2B49FE"/>
<path d="M52.7081 65.3398L40.4098 72.1179L62.2393 85.6739L65.2767 93.5393C65.4794 94.0642 65.5782 94.627 65.567 95.1934C65.5557 95.7597 65.4347 96.3177 65.2114 96.8334C64.988 97.349 64.6669 97.8115 64.2677 98.1927C63.8685 98.5738 63.3996 98.8656 62.8895 99.0503C62.3096 99.2602 61.6913 99.3263 61.083 99.2435C60.4747 99.1607 59.8929 98.9312 59.3832 98.5729C58.8735 98.2147 58.4498 97.7374 58.1451 97.1785C57.8404 96.6197 57.6631 95.9943 57.6271 95.3515L57.32 89.8698L29.5749 80.2582C28.6401 79.9344 27.7878 79.3914 27.0825 78.6706C26.3771 77.9497 25.8373 77.0698 25.5039 76.0975C25.0178 74.6803 24.9931 73.1338 25.4335 71.7002C25.8739 70.2666 26.7546 69.0267 27.9379 68.1746L50.2484 52.1066L52.7081 65.3398Z" fill="#FFB8B8"/>
<path d="M65.0064 66.6309C59.8772 64.2712 55.2132 66.8346 49.3261 68.8902L48.4037 51.7838C54.2493 48.5131 59.8227 47.6312 65.0064 50.17L65.0064 66.6309Z" fill="#2B49FE"/>
<path d="M71.1421 43.4735C76.5628 43.4735 80.9571 38.8605 80.9571 33.1699C80.9571 27.4794 76.5628 22.8663 71.1421 22.8663C65.7214 22.8663 61.3271 27.4794 61.3271 33.1699C61.3271 38.8605 65.7214 43.4735 71.1421 43.4735Z" fill="#FFB8B8"/>
<path d="M82.884 31.8699C73.1663 32.869 65.7615 31.2006 61.029 26.4501V22.6244H82.0592L82.884 31.8699Z" fill="#2F2E41"/>
</g>
<defs>
<clipPath id="clip0_29_5">
<rect width="327" height="249" fill="white"/>
</clipPath>
</defs>
</svg>
